<?xml version="1.0" encoding="UTF-8"?>
<svg id="Layer_1" data-name="Layer 1" xmlns="http://www.w3.org/2000/svg" viewBox="0 0 1920 1080">
  <defs>
    <style>
      .cls-1 {
        stroke-width: 0px;
      }
    </style>
  </defs>
  <g>
    <path class="cls-1" d="m649.76,671.24h54.12v14.93h-71.93v-95.9h70.01v14.93h-52.2v66.03Zm-1.37-41.1h47.68v14.66h-47.68v-14.66Z"/>
    <path class="cls-1" d="m724.01,686.17v-95.9h14.66l60.14,73.84h-7.26v-73.84h17.67v95.9h-14.66l-60.14-73.84h7.26v73.84h-17.67Z"/>
    <path class="cls-1" d="m862.93,686.17l-41.92-95.9h19.32l37.4,86.72h-11.1l37.81-86.72h17.81l-41.79,95.9h-17.54Z"/>
    <path class="cls-1" d="m932.66,686.17v-95.9h17.81v95.9h-17.81Z"/>
    <path class="cls-1" d="m1006.37,687.54c-7.49,0-14.66-1.08-21.51-3.22-6.85-2.14-12.29-4.91-16.3-8.29l6.17-13.84c3.84,3.01,8.58,5.53,14.25,7.53,5.66,2.01,11.46,3.01,17.4,3.01,5.02,0,9.09-.55,12.19-1.64,3.1-1.1,5.39-2.58,6.85-4.45,1.46-1.87,2.19-3.99,2.19-6.37,0-2.92-1.05-5.28-3.15-7.06-2.1-1.78-4.82-3.2-8.15-4.25-3.33-1.05-7.03-2.03-11.1-2.95-4.06-.91-8.13-1.99-12.19-3.22-4.06-1.23-7.76-2.83-11.1-4.79-3.33-1.96-6.05-4.59-8.15-7.88-2.1-3.29-3.15-7.49-3.15-12.6s1.39-9.98,4.18-14.32c2.79-4.34,7.03-7.81,12.74-10.41,5.71-2.6,12.95-3.9,21.71-3.9,5.75,0,11.46.73,17.12,2.19,5.66,1.46,10.59,3.56,14.8,6.3l-5.62,13.84c-4.29-2.56-8.72-4.45-13.29-5.68-4.57-1.23-8.95-1.85-13.15-1.85-4.93,0-8.93.59-11.99,1.78-3.06,1.19-5.3,2.74-6.71,4.66-1.42,1.92-2.12,4.11-2.12,6.58,0,2.92,1.03,5.27,3.08,7.06s4.75,3.17,8.08,4.18c3.33,1.01,7.06,1.99,11.17,2.95,4.11.96,8.2,2.03,12.26,3.22,4.06,1.19,7.76,2.74,11.1,4.66,3.33,1.92,6.03,4.52,8.08,7.81,2.05,3.29,3.08,7.45,3.08,12.47s-1.39,9.84-4.18,14.18c-2.79,4.34-7.06,7.81-12.81,10.41-5.75,2.6-13.01,3.9-21.78,3.9Z"/>
    <path class="cls-1" d="m1063.09,686.17v-95.9h17.81v95.9h-17.81Z"/>
    <path class="cls-1" d="m1152,687.54c-7.49,0-14.39-1.23-20.69-3.7s-11.78-5.91-16.44-10.34c-4.66-4.43-8.27-9.63-10.82-15.62-2.56-5.98-3.84-12.54-3.84-19.66s1.28-13.68,3.84-19.66c2.56-5.98,6.17-11.19,10.82-15.62,4.66-4.43,10.14-7.88,16.44-10.34s13.15-3.7,20.55-3.7,14.36,1.23,20.62,3.7c6.25,2.47,11.71,5.92,16.37,10.34,4.66,4.43,8.26,9.64,10.82,15.62,2.56,5.98,3.84,12.54,3.84,19.66s-1.28,13.7-3.84,19.73c-2.56,6.03-6.17,11.23-10.82,15.62-4.66,4.38-10.12,7.81-16.37,10.27-6.26,2.47-13.08,3.7-20.48,3.7Zm-.14-15.62c4.84,0,9.32-.82,13.43-2.47,4.11-1.64,7.67-3.99,10.69-7.06,3.01-3.06,5.36-6.62,7.06-10.69,1.69-4.06,2.53-8.56,2.53-13.5s-.85-9.43-2.53-13.49c-1.69-4.06-4.04-7.62-7.06-10.69-3.01-3.06-6.58-5.41-10.69-7.05-4.11-1.64-8.59-2.47-13.43-2.47s-9.29.82-13.36,2.47c-4.06,1.64-7.63,4-10.69,7.05s-5.44,6.62-7.12,10.69c-1.69,4.06-2.54,8.56-2.54,13.49s.84,9.32,2.54,13.43c1.69,4.11,4.04,7.7,7.06,10.75,3.01,3.06,6.58,5.41,10.69,7.06,4.11,1.64,8.58,2.47,13.43,2.47Z"/>
    <path class="cls-1" d="m1222.69,686.17v-95.9h14.66l60.14,73.84h-7.26v-73.84h17.67v95.9h-14.66l-60.14-73.84h7.26v73.84h-17.67Z"/>
    <path class="cls-1" d="m1372.02,686.17v-95.9h14.66l60.14,73.84h-7.26v-73.84h17.67v95.9h-14.66l-60.14-73.84h7.26v73.84h-17.67Z"/>
    <path class="cls-1" d="m1501.07,671.24h54.11v14.93h-71.92v-95.9h70.01v14.93h-52.2v66.03Zm-1.37-41.1h47.68v14.66h-47.68v-14.66Z"/>
    <path class="cls-1" d="m1562.59,686.17l40.42-55.62v13.43l-38.5-53.7h20.14l28.63,39.73-8.22.14,28.36-39.87h19.32l-38.22,52.75v-12.88l40.69,56.03h-20.55l-30.14-42.2h8.08l-29.73,42.2h-20.28Z"/>
    <path class="cls-1" d="m1692.79,686.17v-80.83h-31.78v-15.07h81.38v15.07h-31.78v80.83h-17.81Z"/>
  </g>
  <g>
    <g>
      <path class="cls-1" d="m514.12,557v-164H177.62v353h336.5v-19H196.62v-315h298.5v145h19Z"/>
      <path class="cls-1" d="m237.12,334v353h132v-19h-113v-315h295v204h19v-223H237.12Z"/>
    </g>
    <path class="cls-1" d="m387.79,686.55v-136.45h90.66v23.08h-66.06v30.25h61.39v22.99h-61.39v37.04h68.3v23.08h-92.89Z"/>
    <path class="cls-1" d="m495.19,686.91v-97.35h18.94l36.82,65.01v-65.01h19.08v97.35h-18.87l-36.89-63.48v63.48h-19.08Z"/>
  </g>
</svg>