<?xml version="1.0" encoding="utf-8"?>
<!-- Generator: Adobe Illustrator 26.5.0, SVG Export Plug-In . SVG Version: 6.00 Build 0)  -->
<svg version="1.1" id="Layer_1" xmlns="http://www.w3.org/2000/svg" xmlns:xlink="http://www.w3.org/1999/xlink" x="0px" y="0px"
	 viewBox="0 0 2000 2000" style="enable-background:new 0 0 2000 2000;" xml:space="preserve">
<style type="text/css">
	.st0{fill:#232B5F;}
	.st1{fill:#272D4F;}
	.st2{fill:none;}
</style>
<g>
	<g>
		<path class="st0" d="M1428.9,1051.9V550.2H399.4v1080h1029.5v-58.1H457.5V608.3h913.3v443.6H1428.9z"/>
		<path class="st0" d="M581.4,369.7v1080h403.9v-58.1H639.5V427.8h902.6v624.1h58.1V369.7H581.4z"/>
	</g>
	<g>
		<path class="st1" d="M1042.4,1448.3v-417.5h277.4v70.6h-202.1v92.6h187.8v70.3h-187.8v113.3h209v70.6H1042.4z"/>
	</g>
	<g>
		<path class="st1" d="M1371,1449.4v-297.8h58l112.7,198.9v-198.9h58.4v297.8h-57.7l-112.9-194.2v194.2H1371z"/>
	</g>
	<line class="st2" x1="985.3" y1="1449.7" x2="985.3" y2="1391.5"/>
	<line class="st2" x1="1428.9" y1="1051.9" x2="1373.8" y2="1051.9"/>
	<line class="st2" x1="1600.2" y1="1051.9" x2="1542.1" y2="1051.9"/>
	<polyline class="st2" points="1343.2,1572.1 1373.8,1572.1 1432,1572.1 	"/>
</g>
</svg>
